<svg xmlns="http://www.w3.org/2000/svg" viewBox="-10 -10 1773 261" width="1773" height="261">
<path d="M 1214.00 46.00 L 1215.00 196.00 L 1240.00 196.00 L 1240.00 144.00 L 1242.00 142.00 L 1305.00 141.00 L 1309.00 143.00 L 1341.00 192.00 L 1345.00 196.00 L 1371.00 196.00 L 1334.00 139.00 L 1357.00 122.00 L 1366.00 104.00 L 1366.00 79.00 L 1362.00 69.00 L 1353.00 58.00 L 1337.00 49.00 L 1322.00 46.00 Z M 1340.00 79.00 L 1340.00 104.00 L 1335.00 111.00 L 1322.00 119.00 L 1314.00 121.00 L 1240.00 120.00 L 1240.00 66.00 L 1324.00 66.00 L 1334.00 71.00 Z M 1496.00 44.00 L 1488.00 44.00 L 1494.00 44.00 L 1494.00 46.00 L 1465.00 47.00 L 1417.00 142.00 L 1417.00 145.00 L 1391.00 194.00 L 1392.00 197.00 L 1416.00 197.00 L 1424.00 179.00 L 1436.00 158.00 L 1471.00 160.00 L 1503.00 160.00 L 1530.00 158.00 L 1548.00 194.00 L 1569.00 195.00 L 1574.00 197.00 L 1576.00 196.00 L 1514.00 75.00 L 1504.00 58.00 L 1500.00 48.00 Z M 1482.00 64.00 L 1484.00 65.00 L 1515.00 127.00 L 1519.00 137.00 L 1518.00 139.00 L 1446.00 138.00 L 1463.00 102.00 L 1475.00 81.00 Z M 52.00 65.00 L 44.00 79.00 L 42.00 87.00 L 40.00 105.00 L 40.00 132.00 L 46.00 163.00 L 52.00 174.00 L 61.00 183.00 L 77.00 192.00 L 112.00 199.00 L 135.00 200.00 L 167.00 195.00 L 185.00 195.00 L 186.00 177.00 L 184.00 175.00 L 139.00 179.00 L 111.00 179.00 L 97.00 177.00 L 94.00 175.00 L 87.00 174.00 L 80.00 170.00 L 75.00 165.00 L 76.00 163.00 L 74.00 160.00 L 84.00 160.00 L 86.00 158.00 L 87.00 162.00 L 88.00 161.00 L 81.00 147.00 L 81.00 149.00 L 77.00 151.00 L 71.00 159.00 L 67.00 151.00 L 65.00 130.00 L 65.00 103.00 L 66.00 92.00 L 70.00 78.00 L 83.00 67.00 L 97.00 64.00 L 122.00 63.00 L 181.00 67.00 L 184.00 69.00 L 186.00 68.00 L 187.00 51.00 L 190.00 48.00 L 137.00 44.00 L 98.00 45.00 L 73.00 51.00 L 60.00 58.00 Z M 1709.00 44.00 L 1675.00 44.00 L 1688.00 44.00 L 1688.00 46.00 L 1564.00 46.00 L 1562.00 44.00 L 1555.00 44.00 L 1562.00 48.00 L 1563.00 66.00 L 1576.00 64.00 L 1624.00 64.00 L 1626.00 67.00 L 1624.00 164.00 L 1625.00 196.00 L 1649.00 196.00 L 1648.00 66.00 L 1650.00 64.00 L 1711.00 66.00 L 1712.00 49.00 Z M 791.00 43.00 L 769.00 44.00 L 768.00 46.00 L 758.00 47.00 L 719.00 108.00 L 705.00 133.00 L 695.00 146.00 L 692.00 144.00 L 682.00 129.00 L 682.00 127.00 L 666.00 105.00 L 658.00 90.00 L 654.00 86.00 L 628.00 45.00 L 629.00 44.00 L 615.00 44.00 L 620.00 44.00 L 620.00 46.00 L 599.00 46.00 L 597.00 48.00 L 599.00 105.00 L 599.00 196.00 L 623.00 196.00 L 623.00 80.00 L 642.00 106.00 L 683.00 172.00 L 706.00 173.00 L 728.00 135.00 L 755.00 95.00 L 763.00 79.00 L 765.00 78.00 L 765.00 196.00 L 788.00 197.00 L 790.00 194.00 Z M 228.00 64.00 L 222.00 72.00 L 216.00 86.00 L 213.00 108.00 L 213.00 134.00 L 216.00 153.00 L 221.00 166.00 L 229.00 177.00 L 240.00 186.00 L 255.00 193.00 L 279.00 197.00 L 288.00 200.00 L 315.00 199.00 L 330.00 197.00 L 346.00 192.00 L 368.00 181.00 L 373.00 176.00 L 382.00 160.00 L 386.00 132.00 L 386.00 108.00 L 381.00 81.00 L 379.00 79.00 L 377.00 72.00 L 365.00 59.00 L 349.00 50.00 L 329.00 45.00 L 312.00 43.00 L 276.00 43.00 L 271.00 45.00 L 260.00 46.00 L 246.00 51.00 Z M 255.00 70.00 L 261.00 67.00 L 275.00 64.00 L 303.00 63.00 L 329.00 66.00 L 345.00 73.00 L 354.00 83.00 L 358.00 91.00 L 360.00 106.00 L 359.00 145.00 L 356.00 157.00 L 353.00 162.00 L 347.00 168.00 L 339.00 173.00 L 327.00 177.00 L 311.00 179.00 L 277.00 178.00 L 261.00 174.00 L 256.00 171.00 L 247.00 162.00 L 242.00 153.00 L 239.00 142.00 L 240.00 95.00 L 245.00 81.00 Z M 558.00 46.00 L 546.00 44.00 L 496.00 42.00 L 495.00 44.00 L 489.00 43.00 L 457.00 45.00 L 436.00 50.00 L 429.00 54.00 L 421.00 62.00 L 414.00 81.00 L 414.00 92.00 L 416.00 101.00 L 420.00 109.00 L 429.00 118.00 L 438.00 123.00 L 452.00 127.00 L 502.00 131.00 L 524.00 136.00 L 531.00 140.00 L 536.00 146.00 L 538.00 151.00 L 538.00 162.00 L 536.00 167.00 L 528.00 175.00 L 513.00 178.00 L 474.00 179.00 L 418.00 175.00 L 416.00 177.00 L 416.00 194.00 L 451.00 198.00 L 503.00 199.00 L 525.00 196.00 L 549.00 187.00 L 559.00 178.00 L 564.00 165.00 L 564.00 145.00 L 561.00 136.00 L 552.00 125.00 L 542.00 119.00 L 520.00 113.00 L 476.00 109.00 L 451.00 105.00 L 445.00 102.00 L 441.00 97.00 L 438.00 85.00 L 439.00 79.00 L 443.00 72.00 L 447.00 68.00 L 452.00 66.00 L 499.00 64.00 L 552.00 69.00 L 554.00 65.00 L 554.00 50.00 L 558.00 48.00 L 559.00 49.00 L 560.00 48.00 Z M 496.00 43.00 L 506.00 42.00 L 512.00 44.00 L 500.00 45.00 Z M 1053.00 57.00 L 1044.00 66.00 L 1037.00 78.00 L 1034.00 87.00 L 1032.00 106.00 L 1032.00 128.00 L 1035.00 151.00 L 1041.00 168.00 L 1048.00 178.00 L 1056.00 185.00 L 1067.00 191.00 L 1098.00 199.00 L 1136.00 200.00 L 1168.00 197.00 L 1181.00 194.00 L 1181.00 176.00 L 1178.00 175.00 L 1175.00 171.00 L 1172.00 171.00 L 1169.00 174.00 L 1160.00 175.00 L 1156.00 177.00 L 1147.00 176.00 L 1144.00 178.00 L 1133.00 179.00 L 1100.00 178.00 L 1083.00 173.00 L 1072.00 166.00 L 1066.00 160.00 L 1062.00 152.00 L 1059.00 140.00 L 1060.00 96.00 L 1066.00 81.00 L 1074.00 73.00 L 1090.00 66.00 L 1102.00 64.00 L 1138.00 64.00 L 1179.00 68.00 L 1180.00 49.00 L 1176.00 46.00 L 1164.00 46.00 L 1164.00 44.00 L 1162.00 45.00 L 1157.00 43.00 L 1142.00 44.00 L 1117.00 43.00 L 1117.00 41.00 L 1133.00 41.00 L 1100.00 41.00 L 1105.00 41.00 L 1105.00 43.00 L 1088.00 43.00 L 1086.00 45.00 L 1075.00 46.00 Z M 1156.00 48.00 L 1170.00 47.00 L 1178.00 49.00 L 1164.00 50.00 Z M 837.00 67.00 L 829.00 83.00 L 827.00 91.00 L 826.00 144.00 L 831.00 165.00 L 836.00 173.00 L 845.00 182.00 L 863.00 191.00 L 886.00 198.00 L 901.00 200.00 L 926.00 200.00 L 961.00 194.00 L 979.00 186.00 L 991.00 175.00 L 996.00 166.00 L 1001.00 149.00 L 1003.00 133.00 L 1003.00 109.00 L 998.00 83.00 L 991.00 70.00 L 981.00 59.00 L 960.00 47.00 L 948.00 43.00 L 918.00 40.00 L 899.00 40.00 L 892.00 41.00 L 892.00 43.00 L 868.00 47.00 L 866.00 49.00 L 854.00 53.00 L 846.00 58.00 Z M 958.00 71.00 L 968.00 81.00 L 973.00 91.00 L 976.00 103.00 L 975.00 144.00 L 972.00 155.00 L 968.00 163.00 L 963.00 168.00 L 953.00 174.00 L 936.00 178.00 L 903.00 179.00 L 887.00 177.00 L 878.00 174.00 L 878.00 172.00 L 873.00 171.00 L 867.00 165.00 L 859.00 160.00 L 854.00 150.00 L 851.00 112.00 L 854.00 89.00 L 862.00 78.00 L 878.00 68.00 L 896.00 64.00 L 931.00 64.00 L 951.00 68.00 Z " fill="#C27D4A" fill-rule="evenodd"/>
</svg>
