<svg xmlns="http://www.w3.org/2000/svg" viewBox="-10 -10 905 972" width="905" height="972">
<path d="M 432.00 60.00 L 420.00 63.00 L 413.00 67.00 L 406.00 73.00 L 401.00 80.00 L 397.00 91.00 L 398.00 113.00 L 396.00 115.00 L 392.00 116.00 L 266.00 190.00 L 213.00 219.00 L 191.00 233.00 L 144.00 259.00 L 123.00 273.00 L 113.00 277.00 L 110.00 274.00 L 101.00 270.00 L 83.00 270.00 L 71.00 275.00 L 63.00 284.00 L 60.00 292.00 L 61.00 310.00 L 65.00 317.00 L 71.00 323.00 L 83.00 330.00 L 85.00 686.00 L 75.00 692.00 L 70.00 698.00 L 66.00 708.00 L 66.00 718.00 L 69.00 727.00 L 79.00 739.00 L 90.00 744.00 L 101.00 744.00 L 113.00 739.00 L 118.00 735.00 L 201.00 781.00 L 266.00 820.00 L 329.00 855.00 L 336.00 861.00 L 360.00 873.00 L 408.00 903.00 L 408.00 915.00 L 410.00 921.00 L 416.00 930.00 L 421.00 934.00 L 435.00 939.00 L 445.00 939.00 L 455.00 935.00 L 464.00 927.00 L 470.00 914.00 L 469.00 901.00 L 474.00 897.00 L 620.00 812.00 L 645.00 796.00 L 683.00 775.00 L 717.00 754.00 L 772.00 716.00 L 775.00 716.00 L 779.00 719.00 L 786.00 721.00 L 796.00 721.00 L 812.00 714.00 L 819.00 707.00 L 822.00 701.00 L 824.00 693.00 L 823.00 681.00 L 821.00 676.00 L 814.00 667.00 L 801.00 660.00 L 787.00 659.00 L 774.00 664.00 L 764.00 658.00 L 718.00 624.00 L 684.00 602.00 L 654.00 579.00 L 628.00 562.00 L 625.00 562.00 L 621.00 577.00 L 608.00 605.00 L 593.00 629.00 L 575.00 648.00 L 556.00 663.00 L 542.00 672.00 L 514.00 685.00 L 499.00 690.00 L 469.00 695.00 L 423.00 695.00 L 397.00 691.00 L 382.00 685.00 L 372.00 683.00 L 346.00 671.00 L 335.00 664.00 L 312.00 644.00 L 306.00 641.00 L 291.00 625.00 L 278.00 608.00 L 262.00 576.00 L 262.00 573.00 L 264.00 572.00 L 260.00 560.00 L 256.00 555.00 L 256.00 544.00 L 253.00 544.00 L 253.00 540.00 L 251.00 537.00 L 247.00 508.00 L 247.00 479.00 L 249.00 473.00 L 250.00 459.00 L 259.00 423.00 L 275.00 387.00 L 289.00 366.00 L 303.00 349.00 L 323.00 330.00 L 351.00 311.00 L 371.00 301.00 L 395.00 293.00 L 421.00 288.00 L 449.00 287.00 L 476.00 290.00 L 492.00 294.00 L 518.00 304.00 L 543.00 317.00 L 562.00 331.00 L 589.00 356.00 L 613.00 386.00 L 628.00 413.00 L 698.00 364.00 L 763.00 322.00 L 771.00 319.00 L 780.00 324.00 L 790.00 326.00 L 801.00 325.00 L 808.00 322.00 L 818.00 313.00 L 821.00 307.00 L 823.00 299.00 L 823.00 289.00 L 818.00 277.00 L 809.00 268.00 L 797.00 263.00 L 781.00 263.00 L 767.00 269.00 L 712.00 236.00 L 697.00 229.00 L 691.00 224.00 L 583.00 163.00 L 487.00 112.00 L 480.00 110.00 L 476.00 107.00 L 477.00 94.00 L 474.00 84.00 L 466.00 71.00 L 454.00 63.00 L 445.00 60.00 Z M 395.00 891.00 L 397.00 890.00 L 404.00 895.00 L 402.00 896.00 Z M 408.00 889.00 L 409.00 888.00 L 410.00 890.00 L 409.00 891.00 Z M 364.00 759.00 L 365.00 758.00 L 370.00 763.00 L 368.00 764.00 Z M 126.00 702.00 L 129.00 705.00 L 129.00 710.00 L 126.00 709.00 Z M 764.00 702.00 L 762.00 705.00 L 671.00 762.00 L 507.00 857.00 L 463.00 885.00 L 461.00 885.00 L 449.00 876.00 L 432.00 875.00 L 423.00 878.00 L 413.00 886.00 L 300.00 818.00 L 285.00 811.00 L 251.00 789.00 L 242.00 786.00 L 241.00 784.00 L 238.00 784.00 L 236.00 781.00 L 222.00 775.00 L 209.00 767.00 L 208.00 765.00 L 192.00 758.00 L 169.00 744.00 L 131.00 725.00 L 142.00 724.00 L 167.00 727.00 L 199.00 728.00 L 232.00 732.00 L 269.00 733.00 L 324.00 738.00 L 333.00 749.00 L 360.00 776.00 L 410.00 820.00 L 410.00 834.00 L 417.00 848.00 L 430.00 859.00 L 436.00 861.00 L 444.00 861.00 L 458.00 852.00 L 466.00 843.00 L 469.00 835.00 L 468.00 821.00 L 566.00 732.00 L 633.00 724.00 L 639.00 722.00 L 646.00 722.00 L 652.00 720.00 L 659.00 720.00 L 707.00 712.00 L 760.00 701.00 Z M 308.00 688.00 L 309.00 687.00 L 331.00 699.00 L 348.00 706.00 L 375.00 715.00 L 411.00 724.00 L 436.00 727.00 L 440.00 729.00 L 480.00 732.00 L 539.00 732.00 L 460.00 805.00 L 455.00 801.00 L 446.00 798.00 L 433.00 798.00 L 417.00 804.00 L 378.00 769.00 L 343.00 733.00 Z M 595.00 656.00 L 556.00 712.00 L 527.00 715.00 L 488.00 715.00 L 477.00 713.00 L 490.00 710.00 L 498.00 711.00 L 512.00 708.00 L 543.00 696.00 L 571.00 678.00 L 594.00 655.00 Z M 596.00 651.00 L 597.00 654.00 L 595.00 656.00 L 594.00 654.00 Z M 304.00 644.00 L 306.00 643.00 L 318.00 655.00 L 317.00 656.00 L 308.00 650.00 Z M 302.00 642.00 L 304.00 641.00 L 305.00 643.00 L 304.00 644.00 Z M 284.00 622.00 L 285.00 621.00 L 299.00 636.00 L 295.00 636.00 L 287.00 628.00 Z M 277.00 609.00 L 281.00 613.00 L 283.00 617.00 L 282.00 619.00 L 276.00 612.00 Z M 578.00 712.00 L 613.00 659.00 L 632.00 623.00 L 642.00 599.00 L 642.00 596.00 L 644.00 594.00 L 653.00 599.00 L 685.00 623.00 L 764.00 677.00 L 761.00 686.00 L 752.00 689.00 L 624.00 709.00 L 589.00 713.00 Z M 166.00 588.00 L 168.00 587.00 L 208.00 624.00 L 237.00 648.00 L 264.00 668.00 L 282.00 679.00 L 286.00 683.00 L 289.00 690.00 L 308.00 717.00 L 315.00 725.00 L 310.00 726.00 L 296.00 723.00 L 256.00 719.00 L 131.00 710.00 L 128.00 702.00 L 125.00 698.00 L 124.00 701.00 L 119.00 695.00 L 119.00 693.00 L 139.00 653.00 Z M 256.00 566.00 L 264.00 582.00 L 265.00 587.00 L 277.00 608.00 L 276.00 610.00 L 271.00 605.00 L 266.00 594.00 L 260.00 586.00 L 255.00 571.00 Z M 254.00 563.00 L 255.00 562.00 L 256.00 564.00 L 255.00 565.00 Z M 257.00 560.00 L 258.00 559.00 L 259.00 561.00 L 258.00 562.00 Z M 193.00 520.00 L 217.00 572.00 L 244.00 619.00 L 259.00 641.00 L 259.00 645.00 L 213.00 609.00 L 173.00 574.00 Z M 231.00 430.00 L 232.00 435.00 L 226.00 454.00 L 222.00 484.00 L 222.00 508.00 L 225.00 540.00 L 227.00 545.00 L 226.00 550.00 L 203.00 501.00 Z M 240.00 375.00 L 241.00 377.00 L 226.00 403.00 L 192.00 482.00 L 171.00 440.00 L 183.00 431.00 Z M 667.00 366.00 L 646.00 382.00 L 645.00 381.00 L 641.00 385.00 L 639.00 384.00 L 643.00 379.00 L 657.00 371.00 L 658.00 369.00 L 665.00 365.00 Z M 127.00 360.00 L 128.00 359.00 L 129.00 361.00 L 128.00 362.00 Z M 125.00 357.00 L 126.00 356.00 L 128.00 358.00 L 126.00 359.00 Z M 124.00 355.00 L 125.00 354.00 L 126.00 356.00 L 125.00 357.00 Z M 123.00 353.00 L 124.00 352.00 L 125.00 354.00 L 124.00 355.00 Z M 585.00 345.00 L 586.00 344.00 L 588.00 347.00 L 587.00 348.00 Z M 703.00 343.00 L 701.00 346.00 L 700.00 345.00 L 693.00 351.00 L 686.00 354.00 L 684.00 357.00 L 678.00 359.00 L 674.00 363.00 L 668.00 366.00 L 666.00 365.00 L 684.00 352.00 L 688.00 351.00 L 690.00 348.00 L 694.00 347.00 L 698.00 343.00 Z M 712.00 337.00 L 709.00 339.00 L 711.00 338.00 L 711.00 341.00 L 707.00 341.00 L 706.00 343.00 L 702.00 342.00 L 709.00 336.00 Z M 99.00 330.00 L 184.00 500.00 L 184.00 504.00 L 172.00 534.00 L 165.00 548.00 L 143.00 603.00 L 136.00 616.00 L 128.00 638.00 L 120.00 652.00 L 109.00 677.00 L 103.00 686.00 L 100.00 684.00 L 99.00 599.00 Z M 750.00 313.00 L 748.00 316.00 L 744.00 317.00 L 742.00 320.00 L 737.00 322.00 L 734.00 326.00 L 729.00 327.00 L 725.00 332.00 L 720.00 332.00 L 715.00 337.00 L 711.00 336.00 L 715.00 332.00 L 747.00 312.00 Z M 577.00 304.00 L 579.00 303.00 L 580.00 305.00 L 579.00 306.00 Z M 576.00 302.00 L 577.00 301.00 L 578.00 303.00 L 577.00 304.00 Z M 570.00 296.00 L 572.00 295.00 L 573.00 297.00 L 572.00 298.00 Z M 335.00 290.00 L 330.00 295.00 L 327.00 294.00 L 333.00 289.00 Z M 569.00 289.00 L 575.00 288.00 L 655.00 299.00 L 713.00 302.00 L 756.00 302.00 L 758.00 304.00 L 694.00 344.00 L 638.00 382.00 L 618.00 353.00 L 637.00 383.00 L 635.00 384.00 L 632.00 379.00 L 627.00 379.00 L 623.00 376.00 L 623.00 374.00 L 619.00 374.00 L 614.00 366.00 L 613.00 372.00 L 610.00 374.00 L 607.00 370.00 L 607.00 365.00 L 605.00 364.00 L 607.00 363.00 L 601.00 361.00 L 599.00 358.00 L 593.00 355.00 L 595.00 352.00 L 589.00 347.00 L 590.00 346.00 L 587.00 344.00 L 589.00 343.00 L 586.00 343.00 L 584.00 345.00 L 583.00 341.00 L 580.00 340.00 L 582.00 330.00 L 579.00 327.00 L 581.00 324.00 L 577.00 319.00 L 578.00 317.00 L 579.00 318.00 L 583.00 316.00 L 579.00 309.00 L 580.00 305.00 L 588.00 313.00 L 598.00 327.00 L 599.00 326.00 Z M 345.00 286.00 L 342.00 289.00 L 334.00 289.00 L 342.00 284.00 Z M 818.00 283.00 L 819.00 282.00 L 820.00 284.00 L 819.00 285.00 Z M 816.00 280.00 L 817.00 279.00 L 818.00 281.00 L 817.00 282.00 Z M 815.00 278.00 L 816.00 277.00 L 817.00 279.00 L 816.00 280.00 Z M 813.00 276.00 L 814.00 275.00 L 816.00 277.00 L 814.00 278.00 Z M 809.00 272.00 L 811.00 271.00 L 814.00 275.00 L 813.00 276.00 Z M 483.00 272.00 L 489.00 271.00 L 506.00 273.00 L 544.00 282.00 L 569.00 313.00 L 568.00 314.00 L 554.00 303.00 L 521.00 285.00 L 498.00 276.00 L 485.00 274.00 Z M 373.00 272.00 L 350.00 285.00 L 344.00 285.00 L 347.00 281.00 L 366.00 272.00 Z M 729.00 254.00 L 730.00 256.00 L 728.00 257.00 L 727.00 256.00 Z M 714.00 241.00 L 718.00 241.00 L 751.00 260.00 L 758.00 266.00 L 752.00 266.00 L 732.00 252.00 L 730.00 253.00 L 729.00 250.00 L 728.00 252.00 L 727.00 250.00 L 723.00 250.00 L 722.00 249.00 L 724.00 247.00 L 722.00 249.00 Z M 709.00 238.00 L 712.00 237.00 L 713.00 239.00 L 711.00 240.00 Z M 527.00 238.00 L 528.00 237.00 L 529.00 239.00 L 528.00 240.00 Z M 706.00 236.00 L 708.00 235.00 L 710.00 237.00 L 707.00 238.00 Z M 688.00 226.00 L 691.00 225.00 L 694.00 228.00 L 703.00 232.00 L 704.00 234.00 L 698.00 234.00 Z M 516.00 223.00 L 517.00 222.00 L 518.00 224.00 L 517.00 225.00 Z M 514.00 220.00 L 515.00 219.00 L 517.00 222.00 L 516.00 223.00 Z M 511.00 216.00 L 512.00 215.00 L 514.00 218.00 L 513.00 219.00 Z M 317.00 161.00 L 320.00 159.00 L 322.00 160.00 L 320.00 162.00 Z M 321.00 159.00 L 325.00 156.00 L 328.00 157.00 L 324.00 160.00 Z M 392.00 155.00 L 393.00 157.00 L 391.00 159.00 L 390.00 157.00 Z M 397.00 147.00 L 398.00 146.00 L 399.00 148.00 L 398.00 149.00 Z M 530.00 262.00 L 528.00 263.00 L 514.00 259.00 L 476.00 254.00 L 441.00 254.00 L 405.00 259.00 L 373.00 268.00 L 359.00 274.00 L 332.00 288.00 L 308.00 304.00 L 296.00 315.00 L 295.00 314.00 L 321.00 277.00 L 381.00 198.00 L 423.00 137.00 L 429.00 139.00 L 439.00 139.00 L 449.00 136.00 L 451.00 137.00 L 464.00 165.00 L 485.00 201.00 L 509.00 236.00 Z M 406.00 135.00 L 407.00 137.00 L 399.00 147.00 L 398.00 145.00 Z M 410.00 130.00 L 411.00 132.00 L 407.00 136.00 L 406.00 134.00 Z M 408.00 127.00 L 409.00 129.00 L 365.00 190.00 L 360.00 199.00 L 309.00 266.00 L 262.00 335.00 L 195.00 405.00 L 167.00 431.00 L 146.00 391.00 L 146.00 388.00 L 139.00 374.00 L 134.00 368.00 L 125.00 349.00 L 122.00 346.00 L 111.00 326.00 L 111.00 324.00 L 119.00 315.00 L 123.00 307.00 L 124.00 299.00 L 122.00 293.00 L 217.00 239.00 L 261.00 212.00 L 321.00 179.00 Z M 464.00 126.00 L 466.00 124.00 L 474.00 126.00 L 559.00 171.00 L 675.00 237.00 L 728.00 269.00 L 742.00 279.00 L 754.00 285.00 L 754.00 287.00 L 717.00 288.00 L 658.00 284.00 L 702.00 288.00 L 759.00 288.00 L 761.00 286.00 L 760.00 283.00 L 755.00 279.00 L 757.00 277.00 L 760.00 277.00 L 762.00 281.00 L 765.00 281.00 L 767.00 279.00 L 762.00 280.00 L 761.00 274.00 L 757.00 274.00 L 760.00 271.00 L 760.00 267.00 L 768.00 272.00 L 764.00 273.00 L 769.00 274.00 L 773.00 268.00 L 781.00 264.00 L 793.00 263.00 L 803.00 266.00 L 810.00 271.00 L 808.00 272.00 L 804.00 269.00 L 791.00 268.00 L 792.00 270.00 L 790.00 272.00 L 777.00 272.00 L 773.00 276.00 L 776.00 278.00 L 776.00 285.00 L 771.00 290.00 L 766.00 290.00 L 764.00 294.00 L 756.00 292.00 L 754.00 290.00 L 752.00 293.00 L 751.00 291.00 L 724.00 293.00 L 723.00 291.00 L 683.00 289.00 L 682.00 291.00 L 673.00 291.00 L 672.00 293.00 L 668.00 293.00 L 672.00 293.00 L 674.00 295.00 L 668.00 296.00 L 680.00 296.00 L 679.00 292.00 L 685.00 291.00 L 686.00 293.00 L 682.00 294.00 L 685.00 296.00 L 684.00 297.00 L 687.00 297.00 L 687.00 299.00 L 674.00 299.00 L 656.00 296.00 L 654.00 297.00 L 646.00 296.00 L 646.00 294.00 L 636.00 295.00 L 629.00 293.00 L 628.00 290.00 L 616.00 291.00 L 613.00 288.00 L 612.00 289.00 L 608.00 286.00 L 604.00 286.00 L 604.00 284.00 L 599.00 282.00 L 601.00 281.00 L 584.00 278.00 L 584.00 276.00 L 593.00 276.00 L 604.00 279.00 L 654.00 284.00 L 633.00 282.00 L 621.00 279.00 L 601.00 278.00 L 597.00 276.00 L 558.00 271.00 L 553.00 267.00 L 535.00 245.00 L 510.00 210.00 L 483.00 166.00 L 466.00 133.00 Z M 391.00 119.00 L 394.00 116.00 L 397.00 117.00 L 392.00 120.00 Z " fill="#C27D4A" fill-rule="evenodd"/>
</svg>
